<svg width="34" height="34" viewBox="0 0 34 34" fill="none" xmlns="http://www.w3.org/2000/svg">
<path d="M5.66668 5.66666C4.91523 5.66666 4.19456 5.96518 3.66321 6.49653C3.13185 7.02788 2.83334 7.74855 2.83334 8.5V14.1667C3.58479 14.1667 4.30546 14.4652 4.83681 14.9965C5.36817 15.5279 5.66668 16.2486 5.66668 17C5.66668 17.7514 5.36817 18.4721 4.83681 19.0035C4.30546 19.5348 3.58479 19.8333 2.83334 19.8333V25.5C2.83334 26.2514 3.13185 26.9721 3.66321 27.5035C4.19456 28.0348 4.91523 28.3333 5.66668 28.3333H28.3333C29.0848 28.3333 29.8055 28.0348 30.3368 27.5035C30.8682 26.9721 31.1667 26.2514 31.1667 25.5V19.8333C30.4152 19.8333 29.6946 19.5348 29.1632 19.0035C28.6319 18.4721 28.3333 17.7514 28.3333 17C28.3333 16.2486 28.6319 15.5279 29.1632 14.9965C29.6946 14.4652 30.4152 14.1667 31.1667 14.1667V8.5C31.1667 7.74855 30.8682 7.02788 30.3368 6.49653C29.8055 5.96518 29.0848 5.66666 28.3333 5.66666H5.66668ZM21.9583 9.91666L24.0833 12.0417L12.0417 24.0833L9.91668 21.9583L21.9583 9.91666ZM12.4808 9.97333C13.8692 9.97333 14.9883 11.0925 14.9883 12.4808C14.9883 13.1459 14.7242 13.7837 14.2539 14.2539C13.7837 14.7241 13.1459 14.9883 12.4808 14.9883C11.0925 14.9883 9.97334 13.8692 9.97334 12.4808C9.97334 11.8158 10.2375 11.178 10.7078 10.7078C11.178 10.2375 11.8158 9.97333 12.4808 9.97333ZM21.5192 19.0117C22.9075 19.0117 24.0267 20.1308 24.0267 21.5192C24.0267 22.1842 23.7625 22.822 23.2922 23.2922C22.822 23.7625 22.1842 24.0267 21.5192 24.0267C20.1308 24.0267 19.0117 22.9075 19.0117 21.5192C19.0117 20.8541 19.2759 20.2163 19.7461 19.7461C20.2164 19.2758 20.8541 19.0117 21.5192 19.0117Z" fill="#5F4BE7"/>
</svg>
