<svg width="36" height="36" viewBox="0 0 36 36" fill="none" xmlns="http://www.w3.org/2000/svg">
<path d="M14.25 4.5H6.75C5.50736 4.5 4.5 5.50736 4.5 6.75V14.25C4.5 15.4926 5.50736 16.5 6.75 16.5H14.25C15.4926 16.5 16.5 15.4926 16.5 14.25V6.75C16.5 5.50736 15.4926 4.5 14.25 4.5Z" fill="#5F4BE7"/>
<path d="M14.25 19.5H6.75C5.50736 19.5 4.5 20.5074 4.5 21.75V29.25C4.5 30.4926 5.50736 31.5 6.75 31.5H14.25C15.4926 31.5 16.5 30.4926 16.5 29.25V21.75C16.5 20.5074 15.4926 19.5 14.25 19.5Z" fill="#5F4BE7"/>
<path d="M29.25 4.5H21.75C20.5074 4.5 19.5 5.50736 19.5 6.75V14.25C19.5 15.4926 20.5074 16.5 21.75 16.5H29.25C30.4926 16.5 31.5 15.4926 31.5 14.25V6.75C31.5 5.50736 30.4926 4.5 29.25 4.5Z" fill="#5F4BE7"/>
<path d="M19.5 19.5H22.5V22.5H19.5V19.5ZM22.5 22.5H25.5V25.5H22.5V22.5ZM19.5 25.5H22.5V28.5H19.5V25.5ZM25.5 25.5H28.5V28.5H25.5V25.5ZM28.5 28.5H31.5V31.5H28.5V28.5ZM22.5 28.5H25.5V31.5H22.5V28.5ZM25.5 19.5H28.5V22.5H25.5V19.5ZM28.5 22.5H31.5V25.5H28.5V22.5Z" fill="#5F4BE7"/>
</svg>
